<svg xmlns="http://www.w3.org/2000/svg" viewBox="0 0 800 500" role="img" aria-label="Screenshot placeholder: Locate highlights on PDF">
  <defs>
    <linearGradient id="bg2" x1="0" y1="0" x2="1" y2="1">
      <stop offset="0" stop-color="#fef9c3"/>
      <stop offset="1" stop-color="#fde68a"/>
    </linearGradient>
  </defs>
  <rect width="800" height="500" fill="url(#bg2)"/>
  <!-- Browser chrome -->
  <rect x="0" y="0" width="800" height="36" fill="#f1f5f9"/>
  <circle cx="20" cy="18" r="6" fill="#ef4444"/>
  <circle cx="40" cy="18" r="6" fill="#f59e0b"/>
  <circle cx="60" cy="18" r="6" fill="#22c55e"/>
  <rect x="140" y="8" width="520" height="20" rx="10" fill="white"/>
  <text x="160" y="22" font-family="ui-monospace, monospace" font-size="12" fill="#64748b">127.0.0.1:3118</text>
  <!-- App header -->
  <rect x="0" y="36" width="800" height="40" fill="white" stroke="#e2e8f0"/>
  <text x="20" y="61" font-family="system-ui, sans-serif" font-size="16" font-weight="700" fill="#0f172a">Shears</text>
  <rect x="700" y="48" width="80" height="16" rx="8" fill="#dcfce7"/>
  <text x="740" y="60" text-anchor="middle" font-family="system-ui, sans-serif" font-size="10" font-weight="600" fill="#16a34a">COMPLETE</text>
  <!-- Left panel -->
  <rect x="0" y="76" width="360" height="424" fill="#f8fafc"/>
  <!-- Highlighted selected card -->
  <rect x="12" y="96" width="336" height="70" rx="6" fill="#eff6ff" stroke="#2563eb" stroke-width="1.5"/>
  <rect x="12" y="96" width="3" height="70" fill="#2563eb"/>
  <rect x="24" y="114" width="14" height="14" rx="2" fill="#2563eb"/>
  <text x="44" y="125" font-family="system-ui, sans-serif" font-size="12" font-weight="500" fill="#0f172a">Inconsistent: "tool-calling" vs "tool calling"</text>
  <rect x="44" y="131" width="34" height="14" rx="7" fill="#fef3c7"/>
  <text x="61" y="141" text-anchor="middle" font-family="system-ui, sans-serif" font-size="9" font-weight="600" fill="#d97706">MED</text>
  <rect x="84" y="131" width="50" height="14" rx="7" fill="#f1f5f9"/>
  <text x="109" y="141" text-anchor="middle" font-family="system-ui, sans-serif" font-size="9" fill="#64748b">88%</text>
  <text x="44" y="160" font-family="system-ui, sans-serif" font-size="10" fill="#94a3b8">term-consistency · p.2 · intro.tex:78</text>
  <rect x="300" y="116" width="40" height="18" rx="4" fill="#2563eb"/>
  <text x="320" y="128" text-anchor="middle" font-family="system-ui, sans-serif" font-size="10" font-weight="600" fill="white">Locate</text>
  <!-- Other cards -->
  <rect x="12" y="176" width="336" height="44" rx="6" fill="white" stroke="#e2e8f0"/>
  <rect x="12" y="176" width="3" height="44" fill="#2563eb"/>
  <text x="28" y="200" font-family="system-ui, sans-serif" font-size="12" fill="#334155">Misspelling: "recieve"</text>
  <rect x="12" y="228" width="336" height="44" rx="6" fill="white" stroke="#e2e8f0"/>
  <rect x="12" y="228" width="3" height="44" fill="#f59e0b"/>
  <text x="28" y="252" font-family="system-ui, sans-serif" font-size="12" fill="#334155">Subject-verb disagreement</text>
  <!-- PDF viewer with highlight -->
  <rect x="360" y="76" width="440" height="424" fill="#e2e8f0"/>
  <rect x="360" y="76" width="440" height="34" fill="white"/>
  <text x="420" y="98" font-family="system-ui, sans-serif" font-size="11" fill="#334155">← Page 2 / 22 →</text>
  <text x="580" y="98" font-family="system-ui, sans-serif" font-size="11" fill="#334155">100%</text>
  <rect x="660" y="86" width="50" height="18" rx="4" fill="white" stroke="#e2e8f0"/>
  <text x="685" y="98" text-anchor="middle" font-family="system-ui, sans-serif" font-size="10" fill="#334155">− + Fit</text>
  <!-- PDF page with highlighted region -->
  <rect x="400" y="128" width="360" height="352" fill="white"/>
  <text x="420" y="155" font-family="serif" font-size="14" font-weight="700" fill="#0f172a">1 Introduction</text>
  <rect x="420" y="170" width="320" height="4" fill="#cbd5e1"/>
  <rect x="420" y="182" width="300" height="4" fill="#cbd5e1"/>
  <rect x="420" y="194" width="310" height="4" fill="#cbd5e1"/>
  <!-- Highlight box -->
  <rect x="418" y="210" width="322" height="16" fill="#fef08a" stroke="#f59e0b" stroke-width="2" rx="2"/>
  <rect x="420" y="214" width="280" height="4" fill="#64748b"/>
  <rect x="420" y="234" width="310" height="4" fill="#cbd5e1"/>
  <rect x="420" y="246" width="290" height="4" fill="#cbd5e1"/>
  <rect x="420" y="258" width="305" height="4" fill="#cbd5e1"/>
  <rect x="420" y="270" width="280" height="4" fill="#cbd5e1"/>
  <rect x="420" y="282" width="320" height="4" fill="#cbd5e1"/>
  <rect x="420" y="300" width="140" height="4" fill="#cbd5e1"/>
  <text x="420" y="330" font-family="serif" font-size="12" font-weight="600" fill="#0f172a">1.1 Motivation</text>
  <rect x="420" y="345" width="320" height="4" fill="#cbd5e1"/>
  <rect x="420" y="357" width="305" height="4" fill="#cbd5e1"/>
  <rect x="420" y="369" width="315" height="4" fill="#cbd5e1"/>
  <!-- Arrow from locate button to highlight -->
  <path d="M 345 125 Q 400 180 418 218" stroke="#f59e0b" stroke-width="2" fill="none" stroke-dasharray="4 4"/>
  <circle cx="418" cy="218" r="3" fill="#f59e0b"/>
</svg>
