<svg xmlns="http://www.w3.org/2000/svg" viewBox="0 0 800 500" role="img" aria-label="Screenshot placeholder: Review problems with inline PDF viewer">
  <defs>
    <linearGradient id="bg1" x1="0" y1="0" x2="1" y2="1">
      <stop offset="0" stop-color="#eff6ff"/>
      <stop offset="1" stop-color="#dbeafe"/>
    </linearGradient>
  </defs>
  <rect width="800" height="500" fill="url(#bg1)"/>
  <!-- Browser chrome -->
  <rect x="0" y="0" width="800" height="36" fill="#f1f5f9"/>
  <circle cx="20" cy="18" r="6" fill="#ef4444"/>
  <circle cx="40" cy="18" r="6" fill="#f59e0b"/>
  <circle cx="60" cy="18" r="6" fill="#22c55e"/>
  <rect x="140" y="8" width="520" height="20" rx="10" fill="white"/>
  <text x="160" y="22" font-family="ui-monospace, monospace" font-size="12" fill="#64748b">127.0.0.1:3118</text>
  <!-- App header -->
  <rect x="0" y="36" width="800" height="40" fill="white" stroke="#e2e8f0"/>
  <text x="20" y="61" font-family="system-ui, sans-serif" font-size="16" font-weight="700" fill="#0f172a">Shears</text>
  <text x="92" y="61" font-family="system-ui, sans-serif" font-size="12" fill="#64748b">Paper Quality Review</text>
  <rect x="700" y="48" width="80" height="16" rx="8" fill="#dcfce7"/>
  <text x="740" y="60" text-anchor="middle" font-family="system-ui, sans-serif" font-size="10" font-weight="600" fill="#16a34a">COMPLETE</text>
  <!-- Progress row -->
  <rect x="0" y="76" width="800" height="32" fill="white" stroke="#e2e8f0"/>
  <text x="20" y="96" font-family="system-ui, sans-serif" font-size="11" fill="#334155">typo</text>
  <rect x="55" y="92" width="90" height="5" rx="2" fill="#e2e8f0"/>
  <rect x="55" y="92" width="90" height="5" rx="2" fill="#22c55e"/>
  <text x="155" y="97" font-family="system-ui, sans-serif" font-size="10" fill="#64748b">Done</text>
  <text x="200" y="96" font-family="system-ui, sans-serif" font-size="11" fill="#334155">grammar</text>
  <rect x="255" y="92" width="90" height="5" rx="2" fill="#e2e8f0"/>
  <rect x="255" y="92" width="68" height="5" rx="2" fill="#2563eb"/>
  <text x="355" y="97" font-family="system-ui, sans-serif" font-size="10" fill="#64748b">17/22</text>
  <text x="400" y="96" font-family="system-ui, sans-serif" font-size="11" fill="#334155">term-consistency</text>
  <rect x="510" y="92" width="90" height="5" rx="2" fill="#e2e8f0"/>
  <rect x="510" y="92" width="40" height="5" rx="2" fill="#2563eb"/>
  <text x="610" y="97" font-family="system-ui, sans-serif" font-size="10" fill="#64748b">9/22</text>
  <!-- Problem list (left) -->
  <rect x="0" y="108" width="360" height="392" fill="#f8fafc"/>
  <text x="16" y="130" font-family="system-ui, sans-serif" font-size="11" font-weight="600" fill="#64748b">TYPO (5)</text>
  <!-- Card 1 -->
  <rect x="12" y="140" width="336" height="54" rx="6" fill="white" stroke="#e2e8f0"/>
  <rect x="12" y="140" width="3" height="54" fill="#2563eb"/>
  <rect x="24" y="156" width="14" height="14" rx="2" fill="#2563eb"/>
  <text x="44" y="167" font-family="system-ui, sans-serif" font-size="12" font-weight="500" fill="#0f172a">Misspelling: "recieve" → "receive"</text>
  <rect x="44" y="173" width="34" height="14" rx="7" fill="#dbeafe"/>
  <text x="61" y="183" text-anchor="middle" font-family="system-ui, sans-serif" font-size="9" font-weight="600" fill="#2563eb">LOW</text>
  <rect x="84" y="173" width="50" height="14" rx="7" fill="#f1f5f9"/>
  <text x="109" y="183" text-anchor="middle" font-family="system-ui, sans-serif" font-size="9" fill="#64748b">98%</text>
  <text x="140" y="184" font-family="system-ui, sans-serif" font-size="10" fill="#94a3b8">p.3 · intro.tex:42</text>
  <rect x="302" y="162" width="40" height="18" rx="4" fill="white" stroke="#e2e8f0"/>
  <text x="322" y="174" text-anchor="middle" font-family="system-ui, sans-serif" font-size="10" font-weight="500" fill="#2563eb">Locate</text>
  <!-- Card 2 -->
  <rect x="12" y="200" width="336" height="54" rx="6" fill="white" stroke="#e2e8f0"/>
  <rect x="12" y="200" width="3" height="54" fill="#f59e0b"/>
  <rect x="24" y="216" width="14" height="14" rx="2" fill="white" stroke="#94a3b8"/>
  <text x="44" y="227" font-family="system-ui, sans-serif" font-size="12" font-weight="500" fill="#0f172a">Subject-verb disagreement: "results shows"</text>
  <rect x="44" y="233" width="52" height="14" rx="7" fill="#fef3c7"/>
  <text x="70" y="243" text-anchor="middle" font-family="system-ui, sans-serif" font-size="9" font-weight="600" fill="#d97706">MEDIUM</text>
  <rect x="102" y="233" width="50" height="14" rx="7" fill="#f1f5f9"/>
  <text x="127" y="243" text-anchor="middle" font-family="system-ui, sans-serif" font-size="9" fill="#64748b">95%</text>
  <!-- Card 3 -->
  <rect x="12" y="260" width="336" height="54" rx="6" fill="white" stroke="#e2e8f0"/>
  <rect x="12" y="260" width="3" height="54" fill="#ef4444"/>
  <rect x="24" y="276" width="14" height="14" rx="2" fill="#2563eb"/>
  <text x="44" y="287" font-family="system-ui, sans-serif" font-size="12" font-weight="500" fill="#0f172a">Inconsistent: "run-time" vs "runtime"</text>
  <rect x="44" y="293" width="34" height="14" rx="7" fill="#fee2e2"/>
  <text x="61" y="303" text-anchor="middle" font-family="system-ui, sans-serif" font-size="9" font-weight="600" fill="#dc2626">HIGH</text>
  <!-- PDF viewer (right) -->
  <rect x="360" y="108" width="440" height="392" fill="#e2e8f0"/>
  <rect x="360" y="108" width="440" height="34" fill="white"/>
  <text x="580" y="130" text-anchor="middle" font-family="system-ui, sans-serif" font-size="11" fill="#334155">Page 3 / 22 · 100%</text>
  <!-- PDF page -->
  <rect x="400" y="156" width="360" height="320" fill="white" filter="url(#shadow)"/>
  <text x="420" y="185" font-family="serif" font-size="14" font-weight="700" fill="#0f172a">3 Overview</text>
  <rect x="420" y="200" width="320" height="4" fill="#cbd5e1"/>
  <rect x="420" y="212" width="300" height="4" fill="#cbd5e1"/>
  <rect x="420" y="224" width="310" height="4" fill="#cbd5e1"/>
  <rect x="420" y="236" width="290" height="4" fill="#cbd5e1"/>
  <rect x="420" y="248" width="305" height="4" fill="#cbd5e1"/>
  <rect x="420" y="260" width="280" height="4" fill="#cbd5e1"/>
  <rect x="420" y="272" width="320" height="4" fill="#cbd5e1"/>
  <rect x="420" y="290" width="140" height="4" fill="#cbd5e1"/>
  <text x="420" y="320" font-family="serif" font-size="12" font-weight="600" fill="#0f172a">3.1 Architecture</text>
  <rect x="420" y="335" width="320" height="4" fill="#cbd5e1"/>
  <rect x="420" y="347" width="305" height="4" fill="#cbd5e1"/>
  <rect x="420" y="359" width="315" height="4" fill="#cbd5e1"/>
  <rect x="420" y="371" width="290" height="4" fill="#cbd5e1"/>
</svg>
